<svg xmlns="http://www.w3.org/2000/svg" width="136.5" height="21.59" viewBox="0 0 136.5 21.59">
  <defs>
    <style>
      .cls-1 {
        fill: #fff;
        fill-rule: evenodd;
      }
    </style>
  </defs>
  <path id="ТЕХНОМАРТ" class="cls-1" d="M171.839,2874.06h4.8v18.9h2.7v-18.9h4.8v-2.1h-12.3v2.1Zm17.4,9h6.6v-2.1h-6.6v-6.9h7.5v-2.1h-10.2v21h10.2v-2.1h-7.5v-7.8Zm15.6-2.7-3.3-8.4h-2.7l4.05,10.2-4.5,10.8h2.7l3.75-9,3.75,9h2.7l-4.5-10.8,4.05-10.2h-2.7Zm18-8.4v9.3h-6.3v-9.3h-2.7v21h2.7v-9.6h6.3v9.6h2.7v-21h-2.7Zm10.035,0.21a4.713,4.713,0,0,0-2.025,1.74,9.19,9.19,0,0,0-1.275,3.31,31.718,31.718,0,0,0,0,10.47,9.247,9.247,0,0,0,1.275,3.32,4.713,4.713,0,0,0,2.025,1.74,7.482,7.482,0,0,0,5.43,0,4.713,4.713,0,0,0,2.025-1.74,9.247,9.247,0,0,0,1.275-3.32,31.718,31.718,0,0,0,0-10.47,9.19,9.19,0,0,0-1.275-3.31,4.713,4.713,0,0,0-2.025-1.74A7.482,7.482,0,0,0,232.873,2872.17Zm1.305,18.9a3.182,3.182,0,0,1-1.2-1.41,10.479,10.479,0,0,1-.825-2.76,31.449,31.449,0,0,1,0-8.88,10.479,10.479,0,0,1,.825-2.76,3.182,3.182,0,0,1,1.2-1.41,2.744,2.744,0,0,1,2.82,0,3.182,3.182,0,0,1,1.2,1.41,10.479,10.479,0,0,1,.825,2.76,31.449,31.449,0,0,1,0,8.88,10.479,10.479,0,0,1-.825,2.76,3.182,3.182,0,0,1-1.2,1.41A2.744,2.744,0,0,1,234.178,2891.07Zm21.81-.81,4.35-12.9h0.15l0.9,15.6h2.7l-1.2-21h-3.3l-4.89,14.4h-0.12l-4.89-14.4h-3.3l-1.2,21h2.7l0.9-15.6h0.15l4.35,12.9h2.7Zm20.4-2.7,1.35,5.4h2.7l-5.1-21h-3.9l-5.1,21h2.7l1.35-5.4h6Zm-0.45-2.1h-5.1l2.49-10.5h0.12Zm9.9-.75v-11.1h2.1a5.38,5.38,0,0,1,1.755.25,2.559,2.559,0,0,1,1.215.89,4.221,4.221,0,0,1,.7,1.71,16.313,16.313,0,0,1,0,5.4,4.221,4.221,0,0,1-.7,1.71,2.539,2.539,0,0,1-1.215.88,5.365,5.365,0,0,1-1.755.26h-2.1Zm0,1.8a14.372,14.372,0,0,0,1.44.21,15.316,15.316,0,0,0,1.56.09,7.644,7.644,0,0,0,2.535-.38,3.859,3.859,0,0,0,1.77-1.26,5.877,5.877,0,0,0,1.05-2.35,16.349,16.349,0,0,0,.345-3.66,14.992,14.992,0,0,0-.36-3.57,5.334,5.334,0,0,0-1.14-2.31,4.334,4.334,0,0,0-2.04-1.25,10.854,10.854,0,0,0-3.06-.37,21.7,21.7,0,0,0-2.5.13,14.165,14.165,0,0,0-2.3.47v20.7h2.7v-6.45Zm10.2-12.45h4.8v18.9h2.7v-18.9h4.8v-2.1h-12.3v2.1Z" transform="translate(-171.844 -2871.66)"/>
</svg>
